<svg xmlns="http://www.w3.org/2000/svg" viewBox="0 0 1080 1080"><defs><style>.cls-1{isolation:isolate;}.cls-2,.cls-33{fill:#afafaf;}.cls-2{opacity:0.41;}.cls-18,.cls-19,.cls-23,.cls-27,.cls-28,.cls-29,.cls-3,.cls-30,.cls-36,.cls-38,.cls-39,.cls-47{fill:none;}.cls-26,.cls-27,.cls-3{stroke:#fff;}.cls-18,.cls-19,.cls-23,.cls-26,.cls-27,.cls-28,.cls-29,.cls-3,.cls-30,.cls-36,.cls-38,.cls-39,.cls-47{stroke-miterlimit:10;}.cls-3{stroke-width:1.95px;stroke-dasharray:3.85 3.85;}.cls-4{fill:#515159;opacity:0.87;}.cls-14,.cls-22,.cls-4,.cls-42,.cls-46,.cls-6,.cls-7{mix-blend-mode:multiply;}.cls-22,.cls-5,.cls-6{fill:#212121;}.cls-7{fill:#895436;}.cls-8{fill:#1a1a1a;}.cls-37,.cls-43,.cls-45,.cls-9{fill:#fff;}.cls-10{fill:#ff7e6e;}.cls-11{fill:#e8e8e8;}.cls-12{fill:#d3d3d3;}.cls-13,.cls-32{fill:#fff6e7;}.cls-13{opacity:0.52;}.cls-13,.cls-37,.cls-45{mix-blend-mode:overlay;}.cls-14,.cls-15{fill:#4c2a29;}.cls-14{opacity:0.28;}.cls-16{fill:#c64f4f;}.cls-17{fill:#803d3d;}.cls-18,.cls-19,.cls-28{stroke:#2f2f35;}.cls-18,.cls-19,.cls-28,.cls-29,.cls-30,.cls-39{stroke-linecap:round;}.cls-18,.cls-29,.cls-30{stroke-width:1.34px;}.cls-19{stroke-width:2.67px;}.cls-20{fill:#8c4242;}.cls-21,.cls-26{fill:#5d001a;}.cls-22,.cls-46{opacity:0.67;}.cls-23{stroke:#7b3c38;stroke-width:1.14px;}.cls-24,.cls-42{fill:#2f2f35;}.cls-25{fill:#a5a5a5;}.cls-26{stroke-width:0.75px;}.cls-27{stroke-width:1.11px;}.cls-27,.cls-38{opacity:0.57;}.cls-28{stroke-width:0.82px;}.cls-29{stroke:#000;}.cls-30{stroke:#4c2a29;}.cls-31{fill:#ececec;}.cls-34{fill:#8b8b8c;}.cls-35{fill:#5a5a63;}.cls-36,.cls-38{stroke:#0f1201;}.cls-37{opacity:0.54;}.cls-39{stroke:#fefefe;stroke-width:2.24px;}.cls-40{fill:#666;}.cls-41{fill:#9e9e9e;}.cls-42{opacity:0.68;}.cls-43{opacity:0.42;}.cls-44{fill:#ccc;}.cls-45{opacity:0.75;}.cls-47{stroke:#666;stroke-width:2px;}.cls-48{fill:#56011b;}</style></defs><g class="cls-1"><g id="Layer_1" data-name="Layer 1"><path class="cls-2" d="M461.45,684.26c-6.11,0-12.23-.27-18.36-.77-67.17-5.51-145-37.58-178.42-96-29.23-51-40.71-117.14-27.4-174.08,12.51-53.51,51.31-96.87,105.64-113.33,61.09-18.51,128.62,4,188.74-21.3,87.5-36.8,197.48-7.57,258.81,62.44C844.83,403.32,858,503.42,840.92,581c-8.63,39.2-31.32,76.94-67.44,96.68-28.73,15.7-63.47,18.79-96.34,14.7-26.42-3.29-50.74-11.9-76.16-19-20.38-5.68-37.09-2.72-58,1.4C516.19,680.06,488.9,684.37,461.45,684.26Z"/><path class="cls-3" d="M476.45,646.81c-4.95,0-9.9-.22-14.86-.63-54.35-4.45-117.31-30.41-144.37-77.66-23.66-41.3-33-94.78-22.18-140.85,10.13-43.31,41.52-78.39,85.48-91.71,49.44-15,104.08,3.23,152.73-17.23,70.8-29.78,159.8-6.13,209.42,50.52,44,50.23,54.64,131.22,40.83,194-7,31.71-25.34,62.26-54.57,78.23-23.25,12.7-51.36,15.21-77.95,11.9-21.38-2.67-41.07-9.64-61.63-15.38-16.49-4.6-30-2.2-46.89,1.14C520.74,643.41,498.66,646.9,476.45,646.81Z"/><path d="M581.33,450.7s9.16-28.7-4.21-37c-8.5-4.37-13.15,1.07-13.15,1.07s-4-20.29-31.53-13.59C514.6,405.49,509,396.3,509,396.3s-.17,25.44,12.12,33c8.89,7.63,5.48,28.24,5.48,28.24Z"/><path class="cls-4" d="M662.47,825.76s49.58,1.49,63.41,14.26c14.55,13.43,29.82,34.41-32.82,34s-118.18-17.64-170.72-12.17-95.66,14.91-108.22,12.81,77-45,77-45l166.22,6.1Z"/><path class="cls-5" d="M616.09,714.23,553.59,708l-62.51,6.28s-3.71,29.54-15.78,45.29l78.29,28.12,78.28-28.12C619.8,743.77,616.09,714.23,616.09,714.23Z"/><path class="cls-6" d="M551.12,786.75l2.47.89,2.46-.89c14.41-33.13,11-70.31,10.11-77.53L553.59,708l-16.09,1.62C537.18,717.51,536.64,753.83,551.12,786.75Z"/><path class="cls-7" d="M490.73,716.64S556.5,745.65,620,733a147.38,147.38,0,0,1-3.93-18.81L553.59,708l-50.21,5-12.65,3.64Z"/><path class="cls-8" d="M521.09,429.3c8.89,7.63,5.48,28.24,5.48,28.24l11.64-1.45c11.95-10.63,25.44-24.1,23.48-29.17-3.44-8.89-13.35-17.76-31.63-18.78S509,396.3,509,396.3,508.8,421.74,521.09,429.3Z"/><path class="cls-9" d="M551.32,501.32l-51.67,18.84-8.57,194.07s18.27,8.57,62.51,8.57V504.33Z"/><path class="cls-9" d="M555.86,501.32l51.67,18.84,8.56,194.07s-18.26,8.57-62.5,8.57V504.33Z"/><path class="cls-10" d="M499.65,520.16l-.24.08a56,56,0,0,0-33.13,31.87L410.81,686.35,458,692l39.92-97.85Z"/><path class="cls-10" d="M607.53,520.16l.24.08a56,56,0,0,1,33.13,31.87l55.46,134.24L649.2,692l-39.93-97.85Z"/><path class="cls-11" d="M662.43,604.23,640.9,552.11a56,56,0,0,0-33.13-31.87l-.24-.08,1.74,74,11.31,27.72C635.68,609.19,650.83,605.08,662.43,604.23Z"/><path class="cls-11" d="M444.74,604.23l21.54-52.12a56,56,0,0,1,33.13-31.87l.24-.08-1.75,74-11.31,27.72C471.49,609.19,456.34,605.08,444.74,604.23Z"/><path class="cls-12" d="M610.9,596.67a57.13,57.13,0,0,1-3.37-5.63l1.74,3.08s-19.66,109.11-72.21,128.24h0c5.05.27,10.54.44,16.53.44,44.24,0,62.5-8.57,62.5-8.57Z"/><path class="cls-13" d="M475.3,582.38c13.33-37.39,14.07-37.11,43.18-44s23.39-33.65,23.39-33.65l-27.14,9.89-4.2,1.53-10.88,4-.24.08a56,56,0,0,0-33.13,31.87L413.11,680.79C435.56,664.26,464,614.22,475.3,582.38Z"/><path class="cls-14" d="M631.87,582.38c-13.33-37.39-14.07-37.11-43.18-44s-23.39-33.65-23.39-33.65l27.15,9.89,4.19,1.53,10.89,4,.24.08a56,56,0,0,1,33.13,31.87l53.16,128.68C671.61,664.26,643.23,614.22,631.87,582.38Z"/><path class="cls-10" d="M553.73,525.26h-.28a13.83,13.83,0,0,1-13.83-13.83v-33h27.94v33A13.83,13.83,0,0,1,553.73,525.26Z"/><path class="cls-15" d="M567.33,503.88h.23V478.41h-13l-14.89,5.39S545.16,503.88,567.33,503.88Z"/><path class="cls-16" d="M586.09,458.57a9,9,0,1,1-9-9A9,9,0,0,1,586.09,458.57Z"/><path class="cls-17" d="M578.86,467.37a114.88,114.88,0,0,0,2.47-16.67,8.83,8.83,0,0,0-4.21-1.1,9,9,0,1,0,0,17.95A9.09,9.09,0,0,0,578.86,467.37Z"/><path class="cls-16" d="M521.09,458.57a9,9,0,1,0,9-9A9,9,0,0,0,521.09,458.57Z"/><path class="cls-17" d="M528.31,467.37a117.7,117.7,0,0,1-2.47-16.67,8.86,8.86,0,0,1,4.22-1.1,9,9,0,0,1,0,17.95A9.19,9.19,0,0,1,528.31,467.37Z"/><path class="cls-10" d="M569.38,427.2H537.8L530,444.27l1.32,16.9c.7,9,6.53,24.59,14.72,28.42a16.09,16.09,0,0,0,15.13,0c8.2-3.83,14-19.4,14.73-28.42l1.31-16.9Z"/><path class="cls-18" d="M561.69,448.63a24.38,24.38,0,0,0,11.29,0"/><path class="cls-19" d="M560,438.92s7.73-1.29,12.39,1.39"/><path class="cls-18" d="M545.49,448.63a24.42,24.42,0,0,1-11.3,0"/><path class="cls-19" d="M547.2,438.92s-7.74-1.29-12.39,1.39"/><path class="cls-13" d="M541,463.36c-1-17.08-3.2-36.16-3.2-36.16L530,444.27l.42,5.37c-.12,0-.22,0-.34,0a9,9,0,1,0,2.26,17.62c2.11,8.73,7.14,19.31,13.7,22.37a18.28,18.28,0,0,0,7.57,1.89S542,480.43,541,463.36Z"/><path class="cls-20" d="M607.53,790.15,429,736a43.66,43.66,0,0,0-54.91,30.74l-.24.9a43.66,43.66,0,0,0,34.71,54c66,11.54,185.69,31.16,248.67,33.56l26.55,17.7a10.37,10.37,0,0,0,12.84-1.06l.14-.13a10.37,10.37,0,0,0,.48-14.65l-4.14-4.43s-3.69-18-21.92-25.68-19.94-26.54-24.23-36.82S615.24,774.74,607.53,790.15Z"/><path class="cls-21" d="M374.05,766.71A43.66,43.66,0,0,1,429,736l60.56,18.38c-9.12,11.37-21.16,34.48-21.52,77.35-22.11-3.6-42.56-7.09-59.48-10a43.66,43.66,0,0,1-34.71-54Z"/><path class="cls-22" d="M430.38,804.37a44.64,44.64,0,0,1-4.83,20.23c-6-1-11.7-2-17-2.94a43.66,43.66,0,0,1-34.71-54l.24-.9a43.67,43.67,0,0,1,2.13-6.21,44.87,44.87,0,0,1,54.2,43.87Z"/><path class="cls-23" d="M616.09,815s-2.57,15-27.4,9.62"/><path class="cls-14" d="M631.87,808.13s-38-1.71-118.52-16.07c-65.21-11.63-84.34-45-89.25-57.26A45.12,45.12,0,0,1,429,736l178.57,54.18c7.71-15.41,35.1-10.27,39.38,0s6,29.11,24.23,36.82,21.92,25.68,21.92,25.68-18.75-12-30.59-14.55S631.87,808.13,631.87,808.13Z"/><path class="cls-24" d="M640.11,854.26s32.79,31.38,60.75,18.47a8.16,8.16,0,0,0,3.07-12.22c-23.55-32-53.24-66.82-64.56-79.91a11.08,11.08,0,0,0-11.47-3.4l-32.21,9.36Z"/><polygon class="cls-25" points="595.69 786.56 564.85 777.2 588.21 849.1 640.11 854.26 595.69 786.56"/><path class="cls-10" d="M499.65,790.15,678.21,736a43.67,43.67,0,0,1,54.92,30.74l.23.9a43.66,43.66,0,0,1-34.7,54C632.64,833.2,513,852.82,450,855.22l-26.55,17.7a10.39,10.39,0,0,1-12.85-1.06l-.14-.13a10.37,10.37,0,0,1-.47-14.65l4.14-4.43s3.69-18,21.92-25.68,19.94-26.54,24.22-36.82S491.94,774.74,499.65,790.15Z"/><path class="cls-26" d="M733.13,766.71A43.67,43.67,0,0,0,678.21,736l-60.55,18.38c9.12,11.37,21.15,34.48,21.51,77.35,22.11-3.6,42.57-7.09,59.49-10a43.66,43.66,0,0,0,34.7-54Z"/><path class="cls-22" d="M676.8,804.37a44.63,44.63,0,0,0,4.82,20.23c6-1,11.7-2,17-2.94a43.66,43.66,0,0,0,34.7-54l-.23-.9A45,45,0,0,0,731,760.5a44.87,44.87,0,0,0-54.2,43.87Z"/><path class="cls-14" d="M475.3,808.13s38.05-1.71,118.53-16.07c65.2-11.63,84.33-45,89.25-57.26a44.73,44.73,0,0,0-4.87,1.17L499.65,790.15c-7.71-15.41-35.11-10.27-39.39,0s-6,29.11-24.22,36.82-21.92,25.68-21.92,25.68,18.74-12,30.59-14.55S475.3,808.13,475.3,808.13Z"/><path class="cls-27" d="M436,827l-26.77-5a44.08,44.08,0,0,1-36.5-51l.16-.95a44.09,44.09,0,0,1,56.77-34.59l50.54,16"/><path class="cls-9" d="M544.41,463.08a1.17,1.17,0,0,0-.94,1.87c2.68,3.44,6.23,5.55,10.13,5.55s7.45-2.11,10.13-5.55a1.17,1.17,0,0,0-.94-1.87Z"/><path class="cls-28" d="M556.24,448.25v9.29a6.2,6.2,0,0,0-5.11,0"/><rect class="cls-10" x="561.69" y="414.74" width="2.28" height="14.53"/><path class="cls-10" d="M696.36,686.35l.1.26a31.52,31.52,0,0,1-15,38.63l-95.35,50-.47-1.22a46.88,46.88,0,0,1,20.64-57.74L649.2,692Z"/><path class="cls-14" d="M676.23,717a20.87,20.87,0,0,0,2.41,9.74l2.8-1.47a31.5,31.5,0,0,0,16.84-29.11c-.38,0-.76-.06-1.15-.06A20.9,20.9,0,0,0,676.23,717Z"/><line class="cls-29" x1="649.2" y1="691.97" x2="676.23" y2="676.64"/><path class="cls-10" d="M411.09,686.35l-.09.26a31.53,31.53,0,0,0,15,38.63l95.36,50,.47-1.22a46.9,46.9,0,0,0-20.64-57.74L458.26,692Z"/><path class="cls-14" d="M431.23,717a20.75,20.75,0,0,1-2.42,9.74l-2.8-1.47a31.52,31.52,0,0,1-16.84-29.11c.39,0,.77-.06,1.16-.06A20.9,20.9,0,0,1,431.23,717Z"/><line class="cls-29" x1="458.26" y1="691.97" x2="431.23" y2="676.64"/><path class="cls-30" d="M510.79,769.68s4.81-26.41-10.86-34.88"/><path class="cls-30" d="M596.39,769.68s-4.81-26.41,10.86-34.88"/><path class="cls-24" d="M467.06,854.26s-32.79,31.38-60.74,18.47a8.15,8.15,0,0,1-3.07-12.22c23.55-32,53.23-66.82,64.55-79.91a11.1,11.1,0,0,1,11.48-3.4l32.2,9.36Z"/><polygon class="cls-31" points="511.48 786.56 542.33 777.2 518.96 849.1 467.06 854.26 511.48 786.56"/><path class="cls-14" d="M498.66,806.11c9.14-1,21-2.4,35.73-4.48l7.94-24.43-30.85,9.36Z"/><path class="cls-32" d="M476.89,832.43,459,859.7a5.3,5.3,0,0,1-5.12,2.33l-.12,0a5.27,5.27,0,0,1-3.65-8.18l18.3-27a5,5,0,0,1,5.31-2.08l.11,0A5,5,0,0,1,476.89,832.43Z"/><polygon class="cls-33" points="551.13 674.81 441.63 674.81 468.62 770.98 551.13 770.98 633.63 770.98 660.63 674.81 551.13 674.81"/><rect class="cls-34" x="468.62" y="770.98" width="165.01" height="14.01"/><ellipse class="cls-35" cx="551.32" cy="730.47" rx="26.77" ry="13.71"/><rect class="cls-35" x="441.63" y="668.43" width="219.01" height="6.38"/><rect class="cls-35" x="477.76" y="775" width="16.53" height="5.63"/><rect class="cls-35" x="501.61" y="775" width="16.53" height="5.63"/><line class="cls-36" x1="633.63" y1="777.98" x2="533.21" y2="777.98"/><path class="cls-37" d="M441.63,674.81l27,96.17h58.77c34.9-40.46,56.1-96.17,56.1-96.17l-.07-6.38H441.63Z"/><line class="cls-38" x1="441.63" y1="674.81" x2="660.63" y2="674.81"/><path class="cls-5" d="M365.45,378.22l-15,3.72a4.06,4.06,0,0,1-4.92-3l-1.44-5.79L367,367.5l1.44,5.8A4.06,4.06,0,0,1,365.45,378.22Z"/><rect class="cls-5" x="273.86" y="281.07" width="141.72" height="96.8" rx="4.19" transform="translate(-69.33 92.94) rotate(-13.97)"/><polygon class="cls-21" points="417.27 345.52 413.67 355.89 298.85 384.44 288.66 377.51 267.51 292.49 396.13 260.5 417.27 345.52"/><rect class="cls-9" x="277.13" y="283.4" width="64.57" height="87.61" transform="translate(-69.82 84.35) rotate(-13.97)"/><rect class="cls-33" x="274.4" y="290.53" width="53.05" height="3.06" transform="translate(-61.59 81.26) rotate(-13.97)"/><rect class="cls-33" x="276.77" y="300.05" width="53.05" height="3.06" transform="translate(-63.82 82.12) rotate(-13.97)"/><rect class="cls-33" x="279.13" y="309.56" width="53.05" height="3.06" transform="translate(-66.05 82.97) rotate(-13.97)"/><rect class="cls-33" x="281.5" y="319.07" width="53.05" height="3.06" transform="translate(-68.27 83.82) rotate(-13.97)"/><rect class="cls-33" x="283.87" y="328.59" width="53.05" height="3.06" transform="translate(-70.5 84.67) rotate(-13.97)"/><rect class="cls-33" x="286.23" y="338.1" width="53.05" height="3.06" transform="translate(-72.72 85.52) rotate(-13.97)"/><rect class="cls-33" x="288.6" y="347.61" width="53.05" height="3.06" transform="translate(-74.95 86.38) rotate(-13.97)"/><rect class="cls-33" x="290.96" y="357.13" width="53.05" height="3.06" transform="translate(-77.18 87.23) rotate(-13.97)"/><rect class="cls-9" x="343.09" y="266.99" width="64.57" height="87.61" transform="translate(-63.92 99.78) rotate(-13.97)"/><rect class="cls-33" x="339.88" y="274.25" width="53.05" height="3.06" transform="translate(-55.73 96.59) rotate(-13.97)"/><rect class="cls-33" x="342.25" y="283.76" width="53.05" height="3.06" transform="translate(-57.95 97.44) rotate(-13.97)"/><rect class="cls-33" x="344.61" y="293.28" width="53.05" height="3.06" transform="translate(-60.18 98.29) rotate(-13.97)"/><rect class="cls-33" x="346.98" y="302.79" width="53.05" height="3.06" transform="translate(-62.41 99.14) rotate(-13.97)"/><rect class="cls-33" x="349.35" y="312.3" width="53.05" height="3.06" transform="translate(-64.63 99.99) rotate(-13.97)"/><rect class="cls-33" x="351.71" y="321.82" width="53.05" height="3.06" transform="translate(-66.86 100.85) rotate(-13.97)"/><rect class="cls-33" x="354.08" y="331.33" width="53.05" height="3.06" transform="translate(-69.08 101.7) rotate(-13.97)"/><rect class="cls-33" x="356.44" y="340.84" width="53.05" height="3.06" transform="translate(-71.31 102.55) rotate(-13.97)"/><path class="cls-21" d="M361.52,373.25l-9.91,2.46a4,4,0,0,1-4.91-2.95l-.91-3.64,17.78-4.43.91,3.64A4.06,4.06,0,0,1,361.52,373.25Z"/><path class="cls-21" d="M581.56,251a48.74,48.74,0,0,0-18.32-10.45l-.3-.09a35.86,35.86,0,0,0-18.51,0l-.3.09A48.78,48.78,0,0,0,525.8,251c-15.3,14.55-12.82,41,2.09,54.9,4.18,3.91,6,9,7.3,14.52.38,1.68,2.6,19.16,1.83,19.16h33.33c-.77,0,1.44-17.48,1.83-19.16,1.28-5.56,3.12-10.61,7.3-14.52C594.38,292,596.87,265.54,581.56,251Z"/><path class="cls-13" d="M547.69,320.41c-1.28-5.56-3.12-10.61-7.3-14.52C525.49,292,523,265.54,538.31,251a48.74,48.74,0,0,1,18.32-10.45l.3-.09c1-.26,2-.47,3-.65a36,36,0,0,0-15.51.65l-.3.09A48.78,48.78,0,0,0,525.8,251c-15.3,14.55-12.82,41,2.09,54.9,4.18,3.91,6,9,7.3,14.52.38,1.68,2.6,19.16,1.83,19.16h12.5C550.29,339.57,548.08,322.09,547.69,320.41Z"/><path class="cls-39" d="M553.68,339.57V298.81l7.18-4.14a3.07,3.07,0,0,0-.75-5.62l-13.06-3.44a2.44,2.44,0,0,1-.37-4.59l7-3.16V264"/><path class="cls-24" d="M573.67,345.18a2.24,2.24,0,0,1-2.25,2.24H534.77a2.24,2.24,0,0,1-2.24-2.24h0a2.24,2.24,0,0,1,2.24-2.25h36.65a2.25,2.25,0,0,1,2.25,2.25Z"/><path class="cls-24" d="M573.67,351.91a2.24,2.24,0,0,1-2.25,2.24H534.77a2.24,2.24,0,0,1-2.24-2.24h0a2.24,2.24,0,0,1,2.24-2.24h36.65a2.24,2.24,0,0,1,2.25,2.24Z"/><path class="cls-24" d="M573.67,358.64a2.24,2.24,0,0,1-2.25,2.24H534.77a2.24,2.24,0,0,1-2.24-2.24h0a2.24,2.24,0,0,1,2.24-2.24h36.65a2.24,2.24,0,0,1,2.25,2.24Z"/><path class="cls-24" d="M553.1,376.59a13.09,13.09,0,0,0,13.09-13.09H540A13.09,13.09,0,0,0,553.1,376.59Z"/><path class="cls-40" d="M708.16,385.2V374.66H703.5a31.72,31.72,0,0,0-5.85-13.51l3.7-3.69L693.9,350l-3.84,3.83a31.73,31.73,0,0,0-13.39-5.19v-5.5H666.13v5.71a31.73,31.73,0,0,0-12.77,5.53l-3.73-3.73-7.45,7.45,3.77,3.78a31.68,31.68,0,0,0-5.4,13.45h-5.23v10.53h5.35A31.69,31.69,0,0,0,646.25,399l-4.12,4.12,7.45,7.45,4.17-4.17a31.69,31.69,0,0,0,13.06,5.34v5.68h10.54V411.7a31.86,31.86,0,0,0,13-5.31l3.48,3.48,7.45-7.45L697.88,399a31.69,31.69,0,0,0,5.71-13.8Zm-36.08,12.95A17.93,17.93,0,1,1,690,380.23,17.92,17.92,0,0,1,672.08,398.15Z"/><path class="cls-41" d="M750.18,425.16v-6.08h-2.69a18.44,18.44,0,0,0-3.37-7.79l2.13-2.13-4.3-4.3-2.21,2.21a18.36,18.36,0,0,0-7.73-3v-3.17h-6.08v3.29a18.41,18.41,0,0,0-7.37,3.19l-2.15-2.15-4.3,4.3,2.18,2.18a18.3,18.3,0,0,0-3.11,7.75h-3v6.08h3.08a18.29,18.29,0,0,0,3.22,7.55l-2.37,2.38,4.3,4.3,2.4-2.41a18.35,18.35,0,0,0,7.53,3.08v3.28h6.08v-3.28a18.32,18.32,0,0,0,7.51-3.06l2,2,4.3-4.3-2-2a18.32,18.32,0,0,0,3.29-8Zm-20.82,7.48A10.35,10.35,0,1,1,739.7,422.3,10.34,10.34,0,0,1,729.36,432.64Z"/><path class="cls-21" d="M846,346.44V324.8h-9.56a65.15,65.15,0,0,0-12-27.74l7.58-7.59-15.3-15.3L808.79,282a65.11,65.11,0,0,0-27.51-10.65v-11.3H759.64v11.73a65.07,65.07,0,0,0-26.23,11.35l-7.66-7.66-15.3,15.3,7.76,7.76a65.19,65.19,0,0,0-11.1,27.62H696.37v21.64h11a65.15,65.15,0,0,0,11.46,26.87l-8.45,8.46,15.3,15.3,8.56-8.56a65.22,65.22,0,0,0,26.82,11v11.69h21.64V400.85A65.14,65.14,0,0,0,809.41,390l7.16,7.15,15.3-15.3-7-7a65.12,65.12,0,0,0,11.73-28.34ZM771.86,373a36.81,36.81,0,1,1,36.81-36.81A36.82,36.82,0,0,1,771.86,373Z"/><circle class="cls-9" cx="771.16" cy="336.31" r="21.6"/><path class="cls-35" d="M350.4,446.81c-46.41,2.82-82.49,30.63-80.58,62.13s41.08,54.74,87.5,51.93h.1a7.34,7.34,0,0,0,6.63-9.13,29.93,29.93,0,0,1-.89-6.75A29,29,0,0,1,416,528.14a7.37,7.37,0,0,0,11.88.46c7-9,10.68-19.21,10-29.86C436,467.25,396.81,444,350.4,446.81Z"/><path class="cls-34" d="M350.09,441.72c-46.41,2.81-82.49,30.62-80.58,62.12s41.09,54.74,87.5,51.93h.1a7.35,7.35,0,0,0,6.64-9.13A29,29,0,0,1,415.67,523a7.37,7.37,0,0,0,11.88.46c7-9,10.69-19.21,10-29.86C435.68,462.15,396.5,438.9,350.09,441.72Z"/><path class="cls-21" d="M333.7,531A10.15,10.15,0,1,1,323,521.48,10.15,10.15,0,0,1,333.7,531Z"/><path class="cls-21" d="M306.05,511.79a10.15,10.15,0,1,1-10.75-9.51A10.15,10.15,0,0,1,306.05,511.79Z"/><path class="cls-21" d="M314.18,478.19a10.15,10.15,0,1,1-10.75-9.51A10.15,10.15,0,0,1,314.18,478.19Z"/><path class="cls-21" d="M348.44,460a10.15,10.15,0,1,1-10.74-9.52A10.15,10.15,0,0,1,348.44,460Z"/><path class="cls-21" d="M387,460.53A10.15,10.15,0,1,1,376.3,451,10.15,10.15,0,0,1,387,460.53Z"/><path class="cls-21" d="M419.62,478.89a10.15,10.15,0,1,1-10.75-9.51A10.15,10.15,0,0,1,419.62,478.89Z"/><path class="cls-42" d="M395.26,447.73l-9.55,20a3,3,0,0,0-3,1.89l0,.06a3.06,3.06,0,0,0,1.68,4l.9.36c-.18,0-1.09-.16-3,2.64h0q-.18.25-.36.54l0,.06-.36.57-.07.12-.35.59a1.74,1.74,0,0,1-.11.18l-.34.62c-.05.08-.09.17-.14.26s-.23.41-.34.64-.12.22-.18.33l-.34.66c-.06.14-.13.28-.2.42l-.34.69-.24.5-.34.72-.26.58c-.11.24-.23.49-.34.75l-.3.68c-.11.26-.22.51-.34.77l-.33.79c-.12.27-.23.53-.34.8s-.24.59-.37.89-.22.54-.33.83-.27.67-.41,1l-.33.83c-.15.39-.31.8-.46,1.21l-.31.78-.56,1.51-.24.64-.84,2.3-2.65,7.42c-.11.33-.22.64-.34,1s-.3.87-.46,1.3-.25.71-.38,1.08l-.62,1.75c-.09.27-.18.52-.28.79l-.62,1.78c-.11.31-.22.61-.32.92-.2.56-.4,1.14-.61,1.71-.12.36-.24.71-.37,1.07l-.71,2-.27.77c-.24.69-.49,1.4-.73,2.11l-.32.9c-.23.66-.46,1.33-.7,2l-.35,1-.75,2.15-.32.93c-.25.7-.5,1.42-.75,2.14-.12.35-.24.71-.37,1.07-.22.64-.44,1.29-.67,1.94l-.48,1.38c-.19.55-.38,1.11-.58,1.67s-.36,1.07-.55,1.6-.41,1.2-.62,1.8c-.1.31-.21.62-.32.94h0c-1.69,4.9-3.38,9.87-5.06,14.79,1.48,0,3-.1,4.45-.19h.1a7.35,7.35,0,0,0,6.64-9.13,28.95,28.95,0,0,1,20-35c1.36-2.93,2.57-5.56,3.58-7.77,10.77-23.59,8.09-25.7,7.75-25.86l.9.36a3,3,0,0,0,4-1.68l0-.07a3,3,0,0,0-1.4-3.83l7.16-20.58A88.71,88.71,0,0,0,395.26,447.73ZM385.31,474h0l.25.1Z"/><path class="cls-43" d="M312.42,476.64a4.24,4.24,0,1,1-4.49-4A4.24,4.24,0,0,1,312.42,476.64Z"/><path class="cls-43" d="M346.71,458.85a4.24,4.24,0,1,1-4.49-4A4.24,4.24,0,0,1,346.71,458.85Z"/><path class="cls-43" d="M383,457.94a4.24,4.24,0,1,1-4.49-4A4.23,4.23,0,0,1,383,457.94Z"/><path class="cls-43" d="M301.77,508.8a4.24,4.24,0,1,1-4.49-4A4.24,4.24,0,0,1,301.77,508.8Z"/><path class="cls-43" d="M331.86,528.05a4.25,4.25,0,1,1-4.5-4A4.25,4.25,0,0,1,331.86,528.05Z"/><path class="cls-21" d="M432.37,441.69s13.85-7.57,14.74-19.27a30.49,30.49,0,0,0-3.06-12.58l-1.9,7.12s-1-11.19-9-16.6-6-3.88-6-3.88,6.71,8.9-.74,23.67S428.31,440,428.31,440Z"/><path class="cls-5" d="M431.52,436.89s-2.51-12.84,3.22-19.74c-7.45,9.43-9,17-7.11,23.14Z"/><path class="cls-9" d="M424.83,439.43a5.25,5.25,0,0,1,6.69-2.54l0,0,.05,0a5.25,5.25,0,0,1,3,6.49l-9.1,28-6.86-2.79-6.86-2.79Z"/><path class="cls-44" d="M410.74,472.06l11.6,4.72a3.06,3.06,0,0,0,4-1.68l0-.06a3.06,3.06,0,0,0-1.67-4l-11.6-4.72a3.06,3.06,0,0,0-4,1.68l0,.06A3.07,3.07,0,0,0,410.74,472.06Z"/><path class="cls-24" d="M411.67,472.44l4.87,2,4.87,2s3.7.88-7.72,25.88c-8.48,18.58-30.31,65.18-42.88,90.07a2.12,2.12,0,0,1-3.92-1.59c8.39-26.6,25.33-75.19,32.24-94.41C408.42,470.48,411.67,472.44,411.67,472.44Z"/><path class="cls-9" d="M385.7,561.92c-5.43,11.33-10.68,22.1-14.89,30.43a2.12,2.12,0,0,1-3.92-1.59c2.81-8.91,6.58-20.28,10.61-32.18Z"/><path class="cls-45" d="M384,539.57h0c17.89-22.14,24.62-64.33,24.65-64.51-2,2.89-5.05,8.89-9.5,21.29C395.75,505.74,390,522.14,384,539.57Z"/><polygon class="cls-41" points="730.38 487.64 733.55 494.06 740.64 495.09 735.51 500.09 736.72 507.15 730.38 503.82 724.04 507.15 725.25 500.09 720.12 495.09 727.21 494.06 730.38 487.64"/><polygon class="cls-40" points="821.64 478.66 826.06 487.63 835.96 489.07 828.8 496.05 830.49 505.91 821.64 501.25 812.78 505.91 814.48 496.05 807.31 489.07 817.21 487.63 821.64 478.66"/><polygon class="cls-41" points="793.94 613.07 796.41 618.07 801.93 618.88 797.94 622.77 798.88 628.27 793.94 625.68 789 628.27 789.94 622.77 785.95 618.88 791.47 618.07 793.94 613.07"/><polygon class="cls-40" points="705.8 579.15 710.22 588.12 720.12 589.56 712.96 596.54 714.65 606.4 705.8 601.75 696.95 606.4 698.63 596.54 691.47 589.56 701.37 588.12 705.8 579.15"/><circle class="cls-21" cx="772.27" cy="554.53" r="49.36" transform="translate(-150.91 327.27) rotate(-21.85)"/><g class="cls-46"><path class="cls-5" d="M759,602.07a49.35,49.35,0,0,0,47.47-12,49.36,49.36,0,0,1-46.94-83.27,49.36,49.36,0,0,0-.53,95.23Z"/></g><path class="cls-13" d="M785.53,507a50.71,50.71,0,0,0-7.38-1.47,53.88,53.88,0,0,0,40.06,67.07A49.4,49.4,0,0,0,785.53,507Z"/><path class="cls-47" d="M723.08,550.46C703.93,543,692,536.25,693,532.67c1.66-6,38.42-.92,82.1,11.26s77.74,26.91,76.07,32.87c-1,3.58-14.59,3.2-34.73-.3"/><path class="cls-9" d="M525.48,566.53a6,6,0,0,0-.43-.44,4,4,0,0,0-2.07-.92,5.33,5.33,0,0,0-2.63.17,4.17,4.17,0,0,0-2.94,4.25,4,4,0,0,0,.82,2.37,4.46,4.46,0,0,0,3.56,1.77,5.92,5.92,0,0,0,1.78-.23,5.47,5.47,0,0,0,1.6-.71.35.35,0,0,0,.17-.33V569h-3.63c-.1,0-.11,0-.11.13,0,.39,0,.79,0,1.19,0,.13,0,.16.16.15h1.82a.57.57,0,0,1,0,.12v1.08a.16.16,0,0,1-.11.17,3.14,3.14,0,0,1-1.56.3,2.52,2.52,0,0,1-2.29-1.44,2.72,2.72,0,0,1-.27-1.54,2.54,2.54,0,0,1,.79-1.68,2.63,2.63,0,0,1,1.62-.7,2.81,2.81,0,0,1,1.71.32c.28.16.53.37.81.57Z"/><path class="cls-48" d="M538.52,567.05l0,.1c.19.46.39.92.59,1.39.68,1.57,1.34,3.16,2.05,4.73a.75.75,0,0,1-.14.88.91.91,0,0,1-.59.35,1.56,1.56,0,0,1-1.14-.29l-.13-.08-.5,1c-.19.38-.19.38.19.57a3.19,3.19,0,0,0,1.92.3,2.33,2.33,0,0,0,1.28-.59,3.15,3.15,0,0,0,.77-1.14q1.46-3.37,2.89-6.75l.17-.42h-1.65c-.09,0-.12,0-.15.11l-1.68,4-.16.37c0-.06,0-.08-.06-.11-.34-.83-.68-1.65-1-2.48-.24-.6-.49-1.2-.74-1.79a.18.18,0,0,0-.13-.1Z"/><path class="cls-9" d="M527,567.06v6.61h1.83v-3.24a1.91,1.91,0,0,1,.22-.91,1.68,1.68,0,0,1,1.76-.76c.11,0,.14,0,.14-.12v-1.46s0-.06,0-.1a3.36,3.36,0,0,0-1.18.19,2.63,2.63,0,0,0-1,.68l-.05,0v-.86Z"/><path class="cls-9" d="M523.09,575.28a1,1,0,0,0,1,1.06,1.05,1.05,0,0,0,1.07-1.06,1.07,1.07,0,0,0-1.06-1.06A1,1,0,0,0,523.09,575.28Z"/><path class="cls-9" d="M532.81,575.29a1,1,0,0,0-1-1.07,1.06,1.06,0,0,0-1.08,1.06,1.09,1.09,0,0,0,1.09,1.07A1.06,1.06,0,0,0,532.81,575.29Z"/><path class="cls-9" d="M529,575.28a1.06,1.06,0,1,0-1.06,1.07A1.07,1.07,0,0,0,529,575.28Z"/><path class="cls-48" d="M536.61,575.28a1.06,1.06,0,1,0-1.06,1.06A1,1,0,0,0,536.61,575.28Z"/><path d="M556.53,578.49H556v.19h.31c-.05.09-.06.17-.11.2a.37.37,0,0,1-.41-.08.4.4,0,0,1-.07-.41.33.33,0,0,1,.34-.21,2.34,2.34,0,0,1,.33.09l.13-.12A.6.6,0,0,0,556,578a.58.58,0,0,0-.51.4.59.59,0,0,0,.18.62.74.74,0,0,0,.83,0,.16.16,0,0,0,0-.09C556.54,578.79,556.53,578.64,556.53,578.49Z"/><path d="M558,579.1h.87v-.21h-.61v-.27h.5v-.19h-.5v-.26h.58V578H558Z"/><path d="M560,579a.86.86,0,0,0,.73.08.31.31,0,0,0,.22-.33c0-.15-.12-.22-.24-.27s-.21,0-.31-.08-.07-.08-.11-.12a.64.64,0,0,1,.13-.1.28.28,0,0,1,.16,0l.25.06.06-.16a.7.7,0,0,0-.7,0,.32.32,0,0,0-.16.31.3.3,0,0,0,.21.25c.1,0,.22,0,.32.09s.09.08.13.13-.1.1-.15.1a4.3,4.3,0,0,1-.46-.07Z"/><path d="M562.8,579.11v-.42h.52v-.21h-.52v-.31h.59V578h-.84v1.12Z"/><path d="M558.92,578c.16.37.53.65.42,1.11h.25a.48.48,0,0,0,0-.12.69.69,0,0,1,.14-.5c.11-.16.19-.32.29-.48a.24.24,0,0,0-.35.15c0,.11-.12.21-.19.33a3.19,3.19,0,0,1-.2-.32A.26.26,0,0,0,558.92,578Z"/><path d="M564.08,579.11v-.93h.36V578h-1v.2h.35v.92Z"/><path d="M569.61,578l0,0c0,.34,0,.69,0,1,0,.09,0,.1.12.06v-.9a1,1,0,0,1,.11.13l.57.71s.08.06.12.1l0,0v-1.05s0,0,0-.07-.06,0-.06.07v.8c-.24-.25-.45-.52-.66-.78A.85.85,0,0,0,569.61,578Z"/><path d="M566.12,578.58h.35l.23-.05-.22,0h-.35v-.41h.59s0,0,.06-.05l0,0H566v1.12h.78v-.05a.36.36,0,0,0-.11,0h-.57Z"/><path d="M575.48,578.53h-.36s0,0-.08,0,.06,0,.08,0h.24s0,.07,0,.1,0,.2-.06.23a.49.49,0,0,1-.69-.22.48.48,0,0,1,.11-.54.54.54,0,0,1,.61-.05s.08,0,.12,0l-.06-.1-.06,0a.63.63,0,0,0-.77.18.62.62,0,0,0,0,.73.65.65,0,0,0,.78.1.22.22,0,0,0,.09-.12C575.49,578.79,575.48,578.67,575.48,578.53Z"/><path d="M569.09,578.59c0,.15,0,.29,0,.43s0,.06,0,.09.05-.06.05-.09c0-.31,0-.63,0-.95,0,0,0-.06-.05-.09s0,.06,0,.09,0,.26,0,.4h-.72c0-.14,0-.28,0-.42s0,0-.05-.07,0,0,0,.08c0,.32,0,.65,0,1,0,0,0,.06.07.09l0,0v-.51Z"/><path d="M576.44,578.07H577s0,0,.08-.05-.05,0-.07,0h-.69v1.12h.79v0a.34.34,0,0,0-.11,0h-.57v-.43h.47a.19.19,0,0,0,.1-.05l0,0h-.56Z"/><path d="M577.31,578.93a.36.36,0,0,0,.07.1.63.63,0,0,0,.52.06.29.29,0,0,0,.24-.29c0-.16-.11-.22-.24-.26l-.27-.08c-.1,0-.21-.07-.19-.21s.12-.18.24-.18a3.77,3.77,0,0,1,.41,0s0-.08-.07-.09a.58.58,0,0,0-.5,0,.29.29,0,0,0-.2.28.26.26,0,0,0,.2.25l.33.1c.1,0,.19.09.17.21a.2.2,0,0,1-.23.17C577.64,579,577.49,579,577.31,578.93Z"/><path d="M567.57,579.14l.33-.11s0-.07.06-.11-.08,0-.11,0a.51.51,0,0,1-.66-.12.48.48,0,0,1,0-.6.51.51,0,0,1,.63-.08s.07,0,.11,0a.53.53,0,0,0-.06-.1.6.6,0,0,0-.7,0,.58.58,0,0,0-.18.64A.61.61,0,0,0,567.57,579.14Z"/><path d="M565.28,579.1c.12,0,.13,0,.13-.08v-.95h.23c.14,0,.14,0,.15-.09H565s-.05,0-.07,0,.05.05.08.05h.31Z"/><path d="M554.4,579.1l0,0s.06-.07.06-.11a.7.7,0,0,1,.13-.52c.11-.15.2-.33.3-.49l0,0a.58.58,0,0,0-.12.1l-.34.54-.33-.54c0-.05-.09-.07-.13-.11l0,0,.12.21A1.31,1.31,0,0,1,554.4,579.1Z"/><path d="M572.38,579v-.92c0-.1,0-.1-.1-.08v1.1H573a.26.26,0,0,1,0-.07Z"/><path d="M575.87,578l0,0v1.1l0,0s.06-.06.06-.09q0-.48,0-1S575.89,578,575.87,578Z"/><path class="cls-48" d="M564.86,575.9H550.14a2.06,2.06,0,0,1-1.37-.43,1.85,1.85,0,0,1-.68-1.26,2.73,2.73,0,0,1,0-.41c0-3,0-6,0-9a1.88,1.88,0,0,1,1.64-1.86l.41,0h29.54a2,2,0,0,1,2,1.53,2.09,2.09,0,0,1,0,.43c0,3,0,6.1,0,9.14a1.93,1.93,0,0,1-1.61,1.92,3.17,3.17,0,0,1-.44,0Zm-14.68-11.23v9h1.75c.2,0,.2,0,.2-.2,0-1.05,0-2.1,0-3.15,0-.14,0-.18.18-.18h3.45c.13,0,.15,0,.15.17v3.2c0,.12,0,.17.16.17h1.65c.13,0,.16,0,.16-.17v-8.83h-1.8c-.14,0-.17,0-.17.18v3.45a1.09,1.09,0,0,1,0,.18h-3.57c-.19,0-.19,0-.19-.2v-3.44c0-.05,0-.11,0-.16Zm17.87,8.63a3.36,3.36,0,0,0,4.06-.84,3.22,3.22,0,0,0,.31-3.81,3.29,3.29,0,0,0-4.31-1.35v-.12c0-.79,0-1.58,0-2.37,0-.12,0-.15-.15-.15h-1.55c-.18,0-.18,0-.18.19,0,2.69,0,5.37,0,8.06,0,.19,0,.38,0,.56s0,.18.18.18h1.5c.11,0,.14,0,.13-.14A1.46,1.46,0,0,1,568.05,573.3Zm5.7-8.63v8.61c0,.37,0,.37.37.37h1.28c.12,0,.17,0,.16-.16a1.46,1.46,0,0,1,0-.21,3.36,3.36,0,0,0,2.28.27,3.26,3.26,0,0,0,1.9-1.26,3.22,3.22,0,0,0,.13-3.75,3.29,3.29,0,0,0-4.23-1.26v-2.62Zm-15,5.64a3.33,3.33,0,1,0,3.35-3.31A3.32,3.32,0,0,0,558.73,570.31Z"/><path class="cls-40" d="M525.48,566.53l-1.19,1.09c-.28-.2-.53-.41-.81-.57a2.81,2.81,0,0,0-1.71-.32,2.63,2.63,0,0,0-1.62.7,2.54,2.54,0,0,0-.79,1.68,2.72,2.72,0,0,0,.27,1.54,2.52,2.52,0,0,0,2.29,1.44,3.14,3.14,0,0,0,1.56-.3.16.16,0,0,0,.11-.17v-1.08a.57.57,0,0,0,0-.12h-1.82c-.12,0-.16,0-.16-.15,0-.4,0-.8,0-1.19,0-.08,0-.13.11-.13h3.63v3.5a.35.35,0,0,1-.17.33,5.47,5.47,0,0,1-1.6.71,5.92,5.92,0,0,1-1.78.23,4.46,4.46,0,0,1-3.56-1.77,4,4,0,0,1-.82-2.37,4.17,4.17,0,0,1,2.94-4.25,5.33,5.33,0,0,1,2.63-.17,4,4,0,0,1,2.07.92A6,6,0,0,1,525.48,566.53Z"/><path class="cls-40" d="M538.52,567.05h1.8a.18.18,0,0,1,.13.1c.25.59.5,1.19.74,1.79.35.83.69,1.65,1,2.48,0,0,0,.05.06.11l.16-.37,1.68-4c0-.07.06-.11.15-.11h1.65l-.17.42q-1.44,3.38-2.89,6.75a3.15,3.15,0,0,1-.77,1.14,2.33,2.33,0,0,1-1.28.59,3.19,3.19,0,0,1-1.92-.3c-.38-.19-.38-.19-.19-.57l.5-1,.13.08a1.56,1.56,0,0,0,1.14.29.91.91,0,0,0,.59-.35.75.75,0,0,0,.14-.88c-.71-1.57-1.37-3.16-2.05-4.73-.2-.47-.4-.93-.59-1.39Z"/><path class="cls-40" d="M533.31,571.12a1.68,1.68,0,0,0,.78.78,1.76,1.76,0,0,0,2-.22.22.22,0,0,1,.13,0l1.3.73c-.15.15-.29.3-.44.43a3.23,3.23,0,0,1-2.55.78,3.3,3.3,0,1,1,3.64-2.62c0,.11-.07.15-.19.15h-4.66Zm3.36-1.13a1.78,1.78,0,0,0-2-1.47c-.74.07-1.57.88-1.5,1.47Z"/><path class="cls-40" d="M527,567.06h1.74v.86l.05,0a2.63,2.63,0,0,1,1-.68,3.36,3.36,0,0,1,1.18-.19s0,.07,0,.1v1.46c0,.12,0,.13-.14.12a1.68,1.68,0,0,0-1.76.76,1.91,1.91,0,0,0-.22.91v3.24H527Z"/><path class="cls-40" d="M523.09,575.28a1,1,0,0,1,1.06-1.06,1.07,1.07,0,0,1,1.06,1.06,1.05,1.05,0,0,1-1.07,1.06A1,1,0,0,1,523.09,575.28Z"/><path class="cls-40" d="M532.81,575.29a1.06,1.06,0,0,1-1,1.06,1.09,1.09,0,0,1-1.09-1.07,1.06,1.06,0,0,1,1.08-1.06A1,1,0,0,1,532.81,575.29Z"/><path class="cls-40" d="M529,575.28a1.07,1.07,0,0,1-1.06,1.07,1.06,1.06,0,0,1-1.06-1.09,1.06,1.06,0,0,1,2.12,0Z"/><path class="cls-48" d="M536.61,575.28a1.06,1.06,0,1,1-2.11,0,1.06,1.06,0,1,1,2.11,0Z"/><path d="M561.71,578a.59.59,0,1,1-.62.6A.6.6,0,0,1,561.71,578Zm-.35.59a.34.34,0,0,0,.36.37.37.37,0,0,0,.36-.37.36.36,0,0,0-.72,0Z"/><path d="M557.53,578.75l.24.35a.28.28,0,0,1-.38-.16.25.25,0,0,0-.35-.13v.29h-.26V578c.21,0,.43,0,.64,0a.36.36,0,0,1,.33.3.39.39,0,0,1-.16.42Zm-.49-.17c.16,0,.33.06.42-.1a.22.22,0,0,0,0-.22c-.11-.12-.27-.07-.41-.07Z"/><path d="M556.53,578.49c0,.15,0,.3,0,.44a.16.16,0,0,1,0,.09.74.74,0,0,1-.83,0,.59.59,0,0,1-.18-.62.58.58,0,0,1,.51-.4.6.6,0,0,1,.56.19l-.13.12a2.34,2.34,0,0,0-.33-.09.33.33,0,0,0-.34.21.4.4,0,0,0,.07.41.37.37,0,0,0,.41.08s.06-.11.11-.2H556v-.19Z"/><path d="M558,579.1V578h.84v.18h-.58v.26h.5v.19h-.5v.27h.61v.21Z"/><path d="M560,579l.08-.16a4.3,4.3,0,0,0,.46.07s.1-.07.15-.1-.07-.11-.13-.13-.22-.06-.32-.09a.3.3,0,0,1-.21-.25.32.32,0,0,1,.16-.31.7.7,0,0,1,.7,0l-.06.16-.25-.06a.28.28,0,0,0-.16,0,.64.64,0,0,0-.13.1s.07.1.11.12.21.05.31.08.23.12.24.27a.31.31,0,0,1-.22.33A.86.86,0,0,1,560,579Z"/><path d="M562.8,579.11h-.25V578h.84v.18h-.59v.31h.52v.21h-.52Z"/><path d="M558.92,578a.26.26,0,0,1,.36.17,3.19,3.19,0,0,0,.2.32c.07-.12.14-.22.19-.33A.24.24,0,0,1,560,578c-.1.16-.18.32-.29.48a.69.69,0,0,0-.14.5.48.48,0,0,1,0,.12h-.25C559.45,578.64,559.08,578.36,558.92,578Z"/><path d="M564.08,579.11h-.26v-.92h-.35V578h1v.19h-.36Z"/><path d="M552.92,579.1V578a4,4,0,0,1,.6,0,.37.37,0,0,1,.25.17.27.27,0,0,1-.12.36.3.3,0,0,1-.1.58Zm.12-.1h.51a.19.19,0,0,0,.19-.2.18.18,0,0,0-.18-.2,4.51,4.51,0,0,0-.52,0Zm0-.92v.4h.43a.2.2,0,0,0,.21-.2.19.19,0,0,0-.2-.2Z"/><path d="M569.61,578a.85.85,0,0,1,.14.11c.21.26.42.53.66.78v-.8s0,0,.06-.07,0,0,0,.07v1.05l0,0s-.09-.06-.12-.1l-.57-.71a1,1,0,0,0-.11-.13v.9c-.08,0-.12,0-.12-.06,0-.34,0-.69,0-1Z"/><path d="M571.39,579.11a.58.58,0,0,1-.6-.57.6.6,0,0,1,.61-.58.59.59,0,0,1,.6.59A.57.57,0,0,1,571.39,579.11Zm0-.1a.47.47,0,1,0,0-.94.48.48,0,0,0-.48.47A.47.47,0,0,0,571.4,579Z"/><path d="M573.7,579.11a.57.57,0,0,1-.6-.57.58.58,0,0,1,.6-.58.58.58,0,0,1,.59.58A.56.56,0,0,1,573.7,579.11Zm0-.1a.46.46,0,0,0,.48-.47.47.47,0,0,0-.48-.47.48.48,0,0,0-.49.47A.47.47,0,0,0,573.7,579Z"/><path d="M566.12,578.58V579h.57a.36.36,0,0,1,.11,0v.05H566V578h.73l0,0s0,.05-.06.05h-.59v.41h.35l.22,0-.23.05Z"/><path d="M575.48,578.53c0,.14,0,.26,0,.38a.22.22,0,0,1-.09.12.65.65,0,0,1-.78-.1.62.62,0,0,1,0-.73.63.63,0,0,1,.77-.18l.06,0,.06.1s-.09,0-.12,0a.54.54,0,0,0-.61.05.48.48,0,0,0-.11.54.49.49,0,0,0,.69.22c.05,0,0-.15.06-.23s0-.05,0-.1h-.24s0,0-.08,0,.05,0,.08,0Z"/><path d="M569.09,578.59h-.72v.51l0,0s-.07-.06-.07-.09c0-.32,0-.65,0-1,0,0,0,0,0-.08s.05,0,.05.07,0,.28,0,.42h.72c0-.14,0-.27,0-.4s0-.06,0-.09.05.06.05.09c0,.32,0,.64,0,.95,0,0,0,.06-.05.09s0-.06,0-.09S569.09,578.74,569.09,578.59Z"/><path d="M576.44,578.07v.4H577l0,0a.19.19,0,0,1-.1.05h-.47V579H577a.34.34,0,0,1,.11,0v0h-.79V578H577s0,0,.07,0-.06.05-.08.05h-.57Z"/><path d="M577.31,578.93c.18,0,.33.07.48.08a.2.2,0,0,0,.23-.17c0-.12-.07-.18-.17-.21l-.33-.1a.26.26,0,0,1-.2-.25.29.29,0,0,1,.2-.28.58.58,0,0,1,.5,0s0,.05.07.09a3.77,3.77,0,0,0-.41,0c-.12,0-.23,0-.24.18s.09.18.19.21l.27.08c.13,0,.23.1.24.26a.29.29,0,0,1-.24.29.63.63,0,0,1-.52-.06A.36.36,0,0,1,577.31,578.93Z"/><path d="M567.57,579.14a.61.61,0,0,1-.55-.41.58.58,0,0,1,.18-.64.6.6,0,0,1,.7,0,.53.53,0,0,1,.06.1s-.08,0-.11,0a.51.51,0,0,0-.63.08.48.48,0,0,0,0,.6.51.51,0,0,0,.66.12s.08,0,.11,0,0,.09-.06.11Z"/><path d="M565.28,579.1v-1H565s-.05,0-.08-.05.05,0,.07,0h.83c0,.09,0,.09-.15.09h-.23V579C565.41,579.11,565.4,579.11,565.28,579.1Z"/><path d="M554.4,579.1a1.31,1.31,0,0,0-.33-.89L554,578l0,0s.1.06.13.11l.33.54.34-.54a.58.58,0,0,1,.12-.1l0,0c-.1.16-.19.34-.3.49a.7.7,0,0,0-.13.52s0,.08-.06.11Z"/><path d="M572.38,579l.63,0a.26.26,0,0,0,0,.07h-.74V578c.1,0,.1,0,.1.08V579Z"/><path d="M575.87,578s.06.06.06.1q0,.48,0,1s0,.06-.06.09l0,0V578Z"/><path class="cls-9" d="M550.18,564.67h1.94c0,.05,0,.11,0,.16v3.44c0,.2,0,.2.19.2h3.57a1.09,1.09,0,0,0,0-.18v-3.45c0-.14,0-.18.17-.18h1.8v8.83c0,.12,0,.17-.16.17h-1.65c-.13,0-.16,0-.16-.17v-3.2c0-.12,0-.17-.15-.17H552.3c-.13,0-.18,0-.18.18,0,1.05,0,2.1,0,3.15,0,.2,0,.2-.2.2h-1.75Z"/><path class="cls-9" d="M573.75,564.67h1.89v2.62a3.29,3.29,0,0,1,4.23,1.26,3.22,3.22,0,0,1-.13,3.75,3.26,3.26,0,0,1-1.9,1.26,3.36,3.36,0,0,1-2.28-.27,1.46,1.46,0,0,0,0,.21c0,.12,0,.16-.16.16h-1.28c-.37,0-.37,0-.37-.37v-8.61Zm3.31,7.42a1.77,1.77,0,0,0,.18-3.53,1.77,1.77,0,1,0-.18,3.53Z"/><path class="cls-9" d="M558.73,570.31a3.33,3.33,0,1,1,3.24,3.34A3.3,3.3,0,0,1,558.73,570.31Zm1.55,0a1.77,1.77,0,0,0,3.54.12,1.77,1.77,0,1,0-3.54-.12Z"/><path class="cls-21" d="M569.56,568.56a1.77,1.77,0,1,1-1.77,1.76A1.75,1.75,0,0,1,569.56,568.56Z"/><path class="cls-21" d="M577.06,572.09a1.77,1.77,0,1,1,1.78-1.68A1.74,1.74,0,0,1,577.06,572.09Z"/><path class="cls-21" d="M560.28,570.32a1.77,1.77,0,1,1,1.78,1.78A1.77,1.77,0,0,1,560.28,570.32Z"/></g></g></svg>